<svg xmlns="http://www.w3.org/2000/svg" xmlns:xlink="http://www.w3.org/1999/xlink" width="500" zoomAndPan="magnify" viewBox="0 0 375 374.999991" height="500" preserveAspectRatio="xMidYMid meet" version="1.0"><defs><clipPath id="f0c28b4447"><path d="M 143 96.511719 L 234 96.511719 L 234 187 L 143 187 Z M 143 96.511719 " clip-rule="nonzero"/></clipPath><clipPath id="23c22a23be"><path d="M 110.292969 184.101562 L 267 184.101562 L 267 278.253906 L 110.292969 278.253906 Z M 110.292969 184.101562 " clip-rule="nonzero"/></clipPath><clipPath id="fbae9f5f1f"><path d="M 235.128906 170.058594 L 341.535156 170.058594 L 341.535156 245.742188 L 235.128906 245.742188 Z M 235.128906 170.058594 " clip-rule="nonzero"/></clipPath></defs><g clip-path="url(#f0c28b4447)"><path fill="#94dd26" d="M 143.488281 141.699219 C 143.488281 116.855469 163.625 96.71875 188.464844 96.71875 C 213.308594 96.71875 233.449219 116.855469 233.449219 141.699219 C 233.449219 166.542969 213.308594 186.683594 188.464844 186.683594 C 163.625 186.683594 143.488281 166.542969 143.488281 141.699219 " fill-opacity="1" fill-rule="nonzero"/></g><g clip-path="url(#23c22a23be)"><path fill="#94dd26" d="M 265.773438 253.660156 L 259.359375 228.9375 C 254.128906 208.789062 240.023438 192.8125 221.886719 184.742188 C 212.65625 191.921875 201.066406 196.207031 188.464844 196.207031 C 175.871094 196.207031 164.277344 191.921875 155.046875 184.742188 C 136.910156 192.8125 122.800781 208.789062 117.574219 228.9375 L 111.164062 253.660156 C 107.933594 266.105469 117.328125 278.253906 130.191406 278.253906 L 246.746094 278.253906 C 259.609375 278.253906 269.003906 266.105469 265.773438 253.660156 " fill-opacity="1" fill-rule="nonzero"/></g><path fill="#94dd26" d="M 61.777344 135.9375 C 61.777344 116.054688 77.898438 99.9375 97.78125 99.9375 C 117.667969 99.9375 133.785156 116.054688 133.785156 135.9375 C 133.785156 155.824219 117.667969 171.941406 97.78125 171.941406 C 77.898438 171.941406 61.777344 155.824219 61.777344 135.9375 " fill-opacity="1" fill-rule="nonzero"/><path fill="#94dd26" d="M 109.324219 228.605469 C 114.324219 209.332031 126.25 193.3125 142.019531 182.925781 C 137.105469 177.621094 131.160156 173.339844 124.53125 170.390625 C 117.140625 176.136719 107.863281 179.566406 97.78125 179.566406 C 87.699219 179.566406 78.421875 176.136719 71.03125 170.390625 C 56.515625 176.847656 45.222656 189.636719 41.039062 205.765625 L 35.902344 225.554688 C 33.320312 235.515625 40.839844 245.238281 51.132812 245.238281 L 105.007812 245.238281 L 109.324219 228.605469 " fill-opacity="1" fill-rule="nonzero"/><path fill="#94dd26" d="M 315.375 135.9375 C 315.375 116.054688 299.257812 99.9375 279.371094 99.9375 C 259.488281 99.9375 243.367188 116.054688 243.367188 135.9375 C 243.367188 155.824219 259.488281 171.941406 279.371094 171.941406 C 299.257812 171.941406 315.375 155.824219 315.375 135.9375 " fill-opacity="1" fill-rule="nonzero"/><g clip-path="url(#fbae9f5f1f)"><path fill="#94dd26" d="M 267.828125 228.605469 C 262.828125 209.332031 250.902344 193.3125 235.136719 182.925781 C 240.050781 177.621094 245.996094 173.339844 252.625 170.390625 C 260.011719 176.136719 269.289062 179.566406 279.371094 179.566406 C 289.457031 179.566406 298.730469 176.136719 306.121094 170.390625 C 320.640625 176.847656 331.929688 189.636719 336.117188 205.765625 L 341.25 225.554688 C 343.835938 235.515625 336.3125 245.238281 326.019531 245.238281 L 272.144531 245.238281 L 267.828125 228.605469 " fill-opacity="1" fill-rule="nonzero"/></g></svg>