<svg xmlns="http://www.w3.org/2000/svg" xmlns:xlink="http://www.w3.org/1999/xlink" width="500" zoomAndPan="magnify" viewBox="0 0 375 374.999991" height="500" preserveAspectRatio="xMidYMid meet" version="1.0"><defs><clipPath id="e2afacf777"><path d="M 81.1875 81.1875 L 293.8125 81.1875 L 293.8125 293.8125 L 81.1875 293.8125 Z M 81.1875 81.1875 " clip-rule="nonzero"/></clipPath><clipPath id="98501f1e01"><path d="M 187.5 81.1875 C 128.785156 81.1875 81.1875 128.785156 81.1875 187.5 C 81.1875 246.214844 128.785156 293.8125 187.5 293.8125 C 246.214844 293.8125 293.8125 246.214844 293.8125 187.5 C 293.8125 128.785156 246.214844 81.1875 187.5 81.1875 Z M 187.5 81.1875 " clip-rule="nonzero"/></clipPath><clipPath id="adee86149d"><path d="M 45.042969 45.042969 L 330 45.042969 L 330 330 L 45.042969 330 Z M 45.042969 45.042969 " clip-rule="nonzero"/></clipPath></defs><g clip-path="url(#e2afacf777)"><g clip-path="url(#98501f1e01)"><path fill="#ffde59" d="M 81.1875 81.1875 L 293.8125 81.1875 L 293.8125 293.8125 L 81.1875 293.8125 Z M 81.1875 81.1875 " fill-opacity="1" fill-rule="nonzero"/></g></g><path fill="#94dd26" d="M 130.515625 182.746094 C 130.515625 167.019531 143.277344 154.257812 159.003906 154.257812 C 174.734375 154.257812 187.496094 167.019531 187.496094 182.746094 L 187.496094 220.734375 L 130.515625 220.734375 L 130.515625 182.746094 " fill-opacity="1" fill-rule="nonzero"/><path fill="#94dd26" d="M 173.25 140.011719 C 173.25 147.875 166.871094 154.257812 159.003906 154.257812 C 151.140625 154.257812 144.757812 147.875 144.757812 140.011719 C 144.757812 132.148438 151.140625 125.765625 159.003906 125.765625 C 166.871094 125.765625 173.25 132.148438 173.25 140.011719 " fill-opacity="1" fill-rule="nonzero"/><path fill="#94dd26" d="M 187.496094 182.746094 C 187.496094 167.019531 200.257812 154.257812 215.984375 154.257812 C 231.714844 154.257812 244.476562 167.019531 244.476562 182.746094 L 244.476562 220.734375 L 187.496094 220.734375 L 187.496094 182.746094 " fill-opacity="1" fill-rule="nonzero"/><path fill="#94dd26" d="M 206.488281 239.726562 L 206.488281 285.96875 C 216.839844 289.828125 239.726562 282.464844 239.726562 282.464844 C 239.726562 282.464844 258.722656 277.714844 272.96875 257.480469 L 272.96875 239.726562 C 272.96875 231.9375 270.351562 224.871094 265.84375 219.214844 C 259.816406 211.480469 250.355469 206.488281 239.726562 206.488281 C 229.101562 206.488281 219.640625 211.480469 213.613281 219.214844 C 209.105469 224.871094 206.488281 231.9375 206.488281 239.726562 " fill-opacity="1" fill-rule="nonzero"/><path fill="#94dd26" d="M 225.484375 192.242188 C 225.484375 200.109375 231.863281 206.488281 239.726562 206.488281 C 247.59375 206.488281 253.972656 200.109375 253.972656 192.242188 C 253.972656 184.378906 247.59375 178 239.726562 178 C 231.863281 178 225.484375 184.378906 225.484375 192.242188 " fill-opacity="1" fill-rule="nonzero"/><path fill="#94dd26" d="M 168.5 239.726562 L 168.5 285.96875 C 158.152344 289.828125 135.261719 282.464844 135.261719 282.464844 C 135.261719 282.464844 116.269531 277.714844 102.023438 257.480469 L 102.023438 239.726562 C 102.023438 231.9375 104.640625 224.871094 109.144531 219.214844 C 115.175781 211.480469 124.632812 206.488281 135.261719 206.488281 C 145.890625 206.488281 155.351562 211.480469 161.378906 219.214844 C 165.886719 224.871094 168.5 231.9375 168.5 239.726562 " fill-opacity="1" fill-rule="nonzero"/><path fill="#94dd26" d="M 220.734375 234.980469 L 220.734375 281.222656 C 210.382812 285.078125 199.179688 287.210938 187.496094 287.210938 C 175.808594 287.210938 164.605469 285.078125 154.257812 281.222656 L 154.257812 234.980469 C 154.257812 227.191406 156.871094 220.121094 161.378906 214.464844 C 167.40625 206.730469 176.867188 201.742188 187.496094 201.742188 C 198.125 201.742188 207.582031 206.730469 213.613281 214.464844 C 218.121094 220.121094 220.734375 227.191406 220.734375 234.980469 " fill-opacity="1" fill-rule="nonzero"/><path fill="#94dd26" d="M 187.496094 282.464844 C 135.023438 282.464844 92.527344 239.96875 92.527344 187.496094 C 92.527344 135.023438 135.023438 92.527344 187.496094 92.527344 C 239.96875 92.527344 282.464844 135.023438 282.464844 187.496094 C 282.464844 239.96875 239.96875 282.464844 187.496094 282.464844 Z M 324.679688 175.71875 C 324.441406 172.730469 322.398438 170.207031 319.652344 169.078125 L 297.433594 160.191406 C 294.667969 149.082031 290.308594 138.636719 284.503906 129.085938 L 293.945312 107.105469 C 295.132812 104.34375 294.761719 101.113281 292.816406 98.796875 C 290.347656 95.808594 287.640625 92.917969 284.894531 90.097656 C 282.074219 87.351562 279.179688 84.644531 276.195312 82.175781 C 273.875 80.230469 270.648438 79.859375 267.886719 81.046875 L 245.90625 90.488281 C 236.351562 84.679688 225.910156 80.320312 214.800781 77.558594 L 205.914062 55.335938 C 204.78125 52.589844 202.261719 50.550781 199.273438 50.308594 C 195.378906 49.9375 191.445312 49.789062 187.496094 49.789062 C 183.542969 49.789062 179.613281 49.9375 175.71875 50.308594 C 172.730469 50.550781 170.207031 52.589844 169.078125 55.335938 L 160.191406 77.558594 C 149.082031 80.320312 138.636719 84.679688 129.085938 90.488281 L 107.105469 81.046875 C 104.34375 79.859375 101.113281 80.230469 98.796875 82.175781 C 95.808594 84.644531 92.917969 87.351562 90.097656 90.097656 C 87.351562 92.917969 84.644531 95.808594 82.175781 98.796875 C 80.230469 101.113281 79.859375 104.34375 81.046875 107.105469 L 90.488281 129.085938 C 84.699219 138.636719 80.320312 149.082031 77.578125 160.191406 L 55.335938 169.078125 C 52.589844 170.207031 50.550781 172.730469 50.308594 175.71875 C 49.9375 179.613281 49.789062 183.542969 49.789062 187.496094 C 49.789062 191.445312 49.9375 195.378906 50.308594 199.273438 C 50.550781 202.261719 52.589844 204.78125 55.335938 205.914062 L 77.578125 214.800781 C 80.320312 225.910156 84.699219 236.351562 90.488281 245.90625 L 81.046875 267.886719 C 79.859375 270.648438 80.230469 273.875 82.175781 276.195312 C 84.644531 279.179688 87.351562 282.074219 90.097656 284.894531 C 92.917969 287.640625 95.808594 290.347656 98.796875 292.816406 C 101.113281 294.761719 104.34375 295.132812 107.105469 293.945312 L 129.085938 284.503906 C 138.636719 290.292969 149.082031 294.667969 160.191406 297.414062 L 169.078125 319.652344 C 170.207031 322.398438 172.730469 324.441406 175.71875 324.679688 C 179.613281 325.050781 183.542969 325.199219 187.496094 325.199219 C 191.445312 325.199219 195.378906 325.050781 199.273438 324.679688 C 202.261719 324.441406 204.78125 322.398438 205.914062 319.652344 L 214.800781 297.414062 C 225.910156 294.667969 236.351562 290.292969 245.90625 284.503906 L 267.886719 293.945312 C 270.648438 295.132812 273.875 294.761719 276.195312 292.816406 C 279.179688 290.347656 282.074219 287.640625 284.894531 284.894531 C 287.640625 282.074219 290.347656 279.179688 292.816406 276.195312 C 294.761719 273.875 295.132812 270.648438 293.945312 267.886719 L 284.503906 245.90625 C 290.308594 236.351562 294.667969 225.910156 297.433594 214.800781 L 319.652344 205.914062 C 322.398438 204.78125 324.441406 202.261719 324.679688 199.273438 C 325.050781 195.378906 325.199219 191.445312 325.199219 187.496094 C 325.199219 183.542969 325.050781 179.613281 324.679688 175.71875 " fill-opacity="1" fill-rule="nonzero"/><path fill="#94dd26" d="M 206.488281 182.746094 C 206.488281 193.246094 197.992188 201.742188 187.496094 201.742188 C 176.996094 201.742188 168.5 193.246094 168.5 182.746094 C 168.5 172.25 176.996094 163.753906 187.496094 163.753906 C 197.992188 163.753906 206.488281 172.25 206.488281 182.746094 " fill-opacity="1" fill-rule="nonzero"/><path fill="#94dd26" d="M 149.507812 192.242188 C 149.507812 200.109375 143.128906 206.488281 135.261719 206.488281 C 127.398438 206.488281 121.015625 200.109375 121.015625 192.242188 C 121.015625 184.378906 127.398438 178 135.261719 178 C 143.128906 178 149.507812 184.378906 149.507812 192.242188 " fill-opacity="1" fill-rule="nonzero"/><path fill="#94dd26" d="M 230.230469 140.011719 C 230.230469 147.875 223.851562 154.257812 215.984375 154.257812 C 208.121094 154.257812 201.742188 147.875 201.742188 140.011719 C 201.742188 132.148438 208.121094 125.765625 215.984375 125.765625 C 223.851562 125.765625 230.230469 132.148438 230.230469 140.011719 " fill-opacity="1" fill-rule="nonzero"/><g clip-path="url(#adee86149d)"><path fill="#2b2c2d" d="M 319.96875 198.828125 C 319.859375 199.996094 319.042969 201.035156 317.875 201.5 L 295.671875 210.382812 C 294.261719 210.941406 293.203125 212.164062 292.832031 213.648438 C 290.21875 224.148438 286.0625 234.183594 280.460938 243.457031 C 279.664062 244.753906 279.550781 246.367188 280.164062 247.777344 L 289.585938 269.777344 C 290.070312 270.925781 289.921875 272.242188 289.179688 273.132812 C 286.824219 275.972656 284.246094 278.773438 281.5 281.519531 C 278.773438 284.246094 275.953125 286.824219 273.132812 289.179688 C 272.242188 289.921875 270.945312 290.085938 269.777344 289.585938 L 247.777344 280.164062 C 246.367188 279.550781 244.753906 279.664062 243.457031 280.460938 C 234.183594 286.0625 224.148438 290.21875 213.648438 292.832031 C 212.164062 293.203125 210.941406 294.261719 210.382812 295.671875 L 201.5 317.875 C 201.035156 319.023438 199.996094 319.859375 198.847656 319.949219 C 191.558594 320.601562 183.414062 320.601562 176.164062 319.949219 C 174.992188 319.859375 173.957031 319.023438 173.492188 317.875 L 164.605469 295.671875 C 164.050781 294.261719 162.824219 293.203125 161.34375 292.832031 C 150.84375 290.21875 140.808594 286.0625 131.535156 280.460938 C 130.792969 279.996094 129.9375 279.773438 129.085938 279.773438 C 128.457031 279.773438 127.804688 279.90625 127.210938 280.164062 L 105.214844 289.585938 C 104.0625 290.085938 102.746094 289.921875 101.855469 289.179688 C 99.039062 286.824219 96.21875 284.246094 93.472656 281.5 C 90.746094 278.773438 88.167969 275.972656 85.8125 273.132812 C 85.070312 272.242188 84.902344 270.925781 85.402344 269.777344 L 94.828125 247.777344 C 95.4375 246.367188 95.328125 244.753906 94.53125 243.457031 C 88.929688 234.183594 84.773438 224.148438 82.160156 213.648438 C 81.789062 212.164062 80.730469 210.941406 79.320312 210.382812 L 57.117188 201.5 C 55.96875 201.035156 55.132812 199.996094 55.039062 198.847656 C 54.707031 195.191406 54.539062 191.390625 54.539062 187.496094 C 54.539062 183.601562 54.707031 179.796875 55.039062 176.164062 C 55.132812 174.992188 55.96875 173.957031 57.117188 173.492188 L 79.320312 164.605469 C 80.730469 164.050781 81.789062 162.824219 82.160156 161.34375 C 84.773438 150.84375 88.929688 140.808594 94.53125 131.535156 C 95.328125 130.234375 95.4375 128.621094 94.828125 127.210938 L 85.402344 105.214844 C 84.902344 104.0625 85.070312 102.746094 85.8125 101.855469 C 88.167969 99.039062 90.746094 96.21875 93.492188 93.472656 C 96.21875 90.746094 99.019531 88.167969 101.855469 85.8125 C 102.730469 85.070312 104.046875 84.921875 105.214844 85.402344 L 127.210938 94.828125 C 128.605469 95.4375 130.234375 95.328125 131.535156 94.53125 C 140.808594 88.929688 150.84375 84.773438 161.34375 82.15625 C 162.824219 81.789062 164.050781 80.730469 164.605469 79.320312 L 173.492188 57.117188 C 173.957031 55.949219 174.992188 55.132812 176.144531 55.023438 C 183.433594 54.390625 191.578125 54.390625 198.828125 55.023438 C 199.996094 55.132812 201.035156 55.949219 201.5 57.117188 L 210.382812 79.320312 C 210.941406 80.730469 212.164062 81.789062 213.648438 82.15625 C 224.148438 84.773438 234.183594 88.929688 243.457031 94.53125 C 244.753906 95.328125 246.367188 95.4375 247.777344 94.828125 L 269.777344 85.402344 C 270.925781 84.902344 272.242188 85.070312 273.132812 85.8125 C 275.972656 88.167969 278.773438 90.746094 281.519531 93.492188 C 284.246094 96.21875 286.824219 99.039062 289.179688 101.855469 C 289.921875 102.746094 290.070312 104.0625 289.585938 105.214844 L 280.164062 127.210938 C 279.550781 128.621094 279.664062 130.234375 280.460938 131.535156 C 286.0625 140.808594 290.21875 150.84375 292.832031 161.34375 C 293.203125 162.824219 294.261719 164.050781 295.671875 164.605469 L 317.875 173.492188 C 319.042969 173.957031 319.859375 174.992188 319.96875 176.144531 C 320.285156 179.796875 320.453125 183.601562 320.453125 187.496094 C 320.453125 191.390625 320.285156 195.191406 319.96875 198.828125 Z M 321.398438 164.679688 L 301.441406 156.6875 C 298.785156 146.910156 294.890625 137.527344 289.828125 128.753906 L 298.324219 108.960938 C 300.234375 104.472656 299.527344 99.425781 296.46875 95.773438 C 293.945312 92.730469 291.164062 89.707031 288.234375 86.777344 C 285.300781 83.828125 282.277344 81.0625 279.21875 78.503906 C 275.5625 75.460938 270.519531 74.757812 266.03125 76.667969 L 246.238281 85.164062 C 237.464844 80.097656 228.078125 76.203125 218.304688 73.550781 L 210.308594 53.59375 C 208.511719 49.085938 204.449219 46.007812 199.699219 45.5625 C 191.855469 44.875 183.15625 44.875 175.289062 45.5625 C 170.542969 46.007812 166.480469 49.085938 164.679688 53.59375 L 156.6875 73.550781 C 146.910156 76.203125 137.527344 80.097656 128.753906 85.164062 L 108.960938 76.667969 C 104.472656 74.777344 99.425781 75.460938 95.753906 78.503906 C 92.710938 81.0625 89.6875 83.828125 86.777344 86.757812 C 83.828125 89.707031 81.046875 92.730469 78.523438 95.773438 C 75.460938 99.425781 74.757812 104.472656 76.6875 108.960938 L 85.164062 128.753906 C 80.097656 137.527344 76.203125 146.910156 73.550781 156.6875 L 53.59375 164.679688 C 49.085938 166.480469 46.007812 170.542969 45.5625 175.289062 C 45.226562 179.222656 45.042969 183.320312 45.042969 187.496094 C 45.042969 191.667969 45.226562 195.769531 45.5625 199.699219 C 46.007812 204.449219 49.085938 208.511719 53.59375 210.308594 L 73.550781 218.304688 C 76.203125 228.078125 80.097656 237.464844 85.164062 246.238281 L 76.667969 266.03125 C 74.757812 270.519531 75.460938 275.5625 78.523438 279.238281 C 81.0625 282.277344 83.828125 285.300781 86.757812 288.214844 C 89.707031 291.164062 92.730469 293.945312 95.773438 296.46875 C 99.425781 299.527344 104.472656 300.234375 108.960938 298.304688 L 128.753906 289.828125 C 137.527344 294.890625 146.910156 298.785156 156.6875 301.441406 L 164.679688 321.398438 C 166.480469 325.90625 170.542969 328.984375 175.289062 329.429688 C 179.222656 329.761719 183.320312 329.949219 187.496094 329.949219 C 191.667969 329.949219 195.769531 329.761719 199.699219 329.429688 C 204.449219 328.984375 208.511719 325.90625 210.308594 321.398438 L 218.304688 301.441406 C 228.078125 298.785156 237.464844 294.890625 246.238281 289.828125 L 266.03125 298.324219 C 270.519531 300.214844 275.5625 299.527344 279.21875 296.46875 C 282.261719 293.945312 285.285156 291.164062 288.214844 288.234375 C 291.164062 285.300781 293.925781 282.277344 296.488281 279.21875 C 299.527344 275.5625 300.234375 270.519531 298.324219 266.03125 L 289.828125 246.238281 C 294.890625 237.464844 298.785156 228.078125 301.441406 218.304688 L 321.398438 210.308594 C 325.90625 208.511719 328.984375 204.449219 329.429688 199.699219 C 329.78125 195.769531 329.949219 191.667969 329.949219 187.496094 C 329.949219 183.320312 329.78125 179.222656 329.429688 175.289062 C 328.984375 170.542969 325.90625 166.480469 321.398438 164.679688 " fill-opacity="1" fill-rule="nonzero"/></g><path fill="#2b2c2d" d="M 225.484375 269.21875 L 225.484375 234.980469 C 225.484375 228.933594 224.035156 223.203125 221.402344 217.988281 C 226.429688 213.6875 232.941406 211.238281 239.726562 211.238281 C 252.042969 211.238281 262.839844 219.195312 266.660156 230.714844 C 257.421875 247.554688 242.9375 261.058594 225.484375 269.21875 Z M 159.003906 273.042969 L 159.003906 234.980469 C 159.003906 228.488281 161.121094 222.402344 165.125 217.378906 C 170.523438 210.457031 178.667969 206.488281 187.496094 206.488281 C 196.324219 206.488281 204.46875 210.457031 209.902344 217.433594 C 213.871094 222.402344 215.984375 228.488281 215.984375 234.980469 L 215.984375 273.042969 C 207.007812 276.027344 197.457031 277.714844 187.496094 277.714844 C 177.535156 277.714844 167.984375 276.027344 159.003906 273.042969 Z M 108.332031 230.714844 C 112.152344 219.195312 122.945312 211.238281 135.261719 211.238281 C 142.050781 211.238281 148.5625 213.6875 153.589844 217.988281 C 150.953125 223.203125 149.507812 228.933594 149.507812 234.980469 L 149.507812 269.21875 C 132.054688 261.058594 117.566406 247.554688 108.332031 230.714844 Z M 125.765625 192.242188 C 125.765625 187.011719 130.03125 182.746094 135.261719 182.746094 C 140.492188 182.746094 144.757812 187.011719 144.757812 192.242188 C 144.757812 197.476562 140.492188 201.742188 135.261719 201.742188 C 130.03125 201.742188 125.765625 197.476562 125.765625 192.242188 Z M 159.003906 159.003906 C 164.21875 159.003906 169.167969 160.765625 173.175781 163.9375 C 167.480469 168.277344 163.753906 175.050781 163.753906 182.746094 C 163.753906 189.796875 166.886719 196.046875 171.785156 200.40625 C 166.871094 202.632812 162.492188 205.914062 158.894531 210.105469 C 156.074219 207.824219 152.941406 205.96875 149.582031 204.578125 C 152.457031 201.257812 154.257812 196.972656 154.257812 192.242188 C 154.257812 182.523438 146.875 174.566406 137.433594 173.472656 C 138.230469 171.671875 139.230469 169.96875 140.457031 168.390625 C 144.890625 162.417969 151.660156 159.003906 159.003906 159.003906 Z M 149.507812 140.011719 C 149.507812 134.78125 153.773438 130.515625 159.003906 130.515625 C 164.234375 130.515625 168.5 134.78125 168.5 140.011719 C 168.5 145.242188 164.234375 149.507812 159.003906 149.507812 C 153.773438 149.507812 149.507812 145.242188 149.507812 140.011719 Z M 201.742188 182.746094 C 201.742188 190.613281 195.359375 196.992188 187.496094 196.992188 C 179.632812 196.992188 173.25 190.613281 173.25 182.746094 C 173.25 174.882812 179.632812 168.5 187.496094 168.5 C 195.359375 168.5 201.742188 174.882812 201.742188 182.746094 Z M 215.984375 159.003906 C 223.332031 159.003906 230.101562 162.417969 234.589844 168.464844 C 235.777344 170.003906 236.761719 171.671875 237.558594 173.472656 C 228.117188 174.566406 220.734375 182.507812 220.734375 192.242188 C 220.734375 196.972656 222.535156 201.257812 225.410156 204.578125 C 222.050781 205.96875 218.917969 207.824219 216.097656 210.105469 C 212.480469 205.914062 208.101562 202.632812 203.207031 200.40625 C 208.101562 196.046875 211.238281 189.796875 211.238281 182.746094 C 211.238281 175.050781 207.507812 168.277344 201.816406 163.9375 C 205.820312 160.765625 210.773438 159.003906 215.984375 159.003906 Z M 206.488281 140.011719 C 206.488281 134.78125 210.753906 130.515625 215.984375 130.515625 C 221.21875 130.515625 225.484375 134.78125 225.484375 140.011719 C 225.484375 145.242188 221.21875 149.507812 215.984375 149.507812 C 210.753906 149.507812 206.488281 145.242188 206.488281 140.011719 Z M 239.726562 201.742188 C 234.496094 201.742188 230.230469 197.476562 230.230469 192.242188 C 230.230469 187.011719 234.496094 182.746094 239.726562 182.746094 C 244.960938 182.746094 249.226562 187.011719 249.226562 192.242188 C 249.226562 197.476562 244.960938 201.742188 239.726562 201.742188 Z M 187.496094 87.777344 C 140.253906 87.777344 99.148438 121.332031 89.761719 167.554688 C 89.261719 170.132812 90.914062 172.636719 93.492188 173.15625 C 96.070312 173.640625 98.554688 172.007812 99.09375 169.449219 C 107.570312 127.621094 144.742188 97.273438 187.496094 97.273438 C 237.242188 97.273438 277.714844 137.75 277.714844 187.496094 C 277.714844 198.734375 275.5625 209.457031 271.800781 219.378906 C 267.550781 212.703125 261.335938 207.546875 254.066406 204.578125 C 256.921875 201.238281 258.722656 196.972656 258.722656 192.242188 C 258.722656 184.804688 254.382812 178.40625 248.132812 175.289062 C 247 170.710938 244.976562 166.367188 242.160156 162.714844 C 238.894531 158.335938 234.71875 154.960938 230.007812 152.699219 C 233.070312 149.339844 234.980469 144.90625 234.980469 140.011719 C 234.980469 129.53125 226.464844 121.015625 215.984375 121.015625 C 205.507812 121.015625 196.992188 129.53125 196.992188 140.011719 C 196.992188 144.90625 198.902344 149.339844 201.964844 152.699219 C 198.457031 154.386719 195.285156 156.703125 192.539062 159.5625 C 190.910156 159.210938 189.21875 159.003906 187.496094 159.003906 C 185.769531 159.003906 184.082031 159.210938 182.449219 159.5625 C 179.707031 156.703125 176.535156 154.386719 173.027344 152.699219 C 176.089844 149.339844 178 144.90625 178 140.011719 C 178 129.53125 169.484375 121.015625 159.003906 121.015625 C 148.523438 121.015625 140.011719 129.53125 140.011719 140.011719 C 140.011719 144.90625 141.921875 149.339844 144.964844 152.699219 C 140.269531 154.941406 136.117188 158.300781 132.886719 162.660156 C 130.011719 166.367188 127.992188 170.710938 126.859375 175.289062 C 120.609375 178.40625 116.269531 184.789062 116.269531 192.242188 C 116.269531 196.972656 118.066406 201.238281 120.925781 204.578125 C 113.652344 207.546875 107.441406 212.703125 103.191406 219.378906 C 99.425781 209.457031 97.273438 198.734375 97.273438 187.496094 C 97.273438 184.878906 95.140625 182.746094 92.527344 182.746094 C 89.910156 182.746094 87.777344 184.878906 87.777344 187.496094 C 87.777344 242.472656 132.519531 287.210938 187.496094 287.210938 C 242.472656 287.210938 287.210938 242.472656 287.210938 187.496094 C 287.210938 132.519531 242.472656 87.777344 187.496094 87.777344 " fill-opacity="1" fill-rule="nonzero"/></svg>