<svg xmlns="http://www.w3.org/2000/svg" xmlns:xlink="http://www.w3.org/1999/xlink" width="500" zoomAndPan="magnify" viewBox="0 0 375 374.999991" height="500" preserveAspectRatio="xMidYMid meet" version="1.0"><defs><clipPath id="abddc1699f"><path d="M 59.574219 131.25 L 172.074219 131.25 L 172.074219 243.75 L 59.574219 243.75 Z M 59.574219 131.25 " clip-rule="nonzero"/></clipPath><clipPath id="58aa0456fe"><path d="M 115.824219 131.25 C 84.757812 131.25 59.574219 156.433594 59.574219 187.5 C 59.574219 218.566406 84.757812 243.75 115.824219 243.75 C 146.890625 243.75 172.074219 218.566406 172.074219 187.5 C 172.074219 156.433594 146.890625 131.25 115.824219 131.25 Z M 115.824219 131.25 " clip-rule="nonzero"/></clipPath><clipPath id="7b7e619826"><path d="M 202.460938 30.542969 L 314.960938 30.542969 L 314.960938 143.042969 L 202.460938 143.042969 Z M 202.460938 30.542969 " clip-rule="nonzero"/></clipPath><clipPath id="43c0f589c5"><path d="M 258.710938 30.542969 C 227.644531 30.542969 202.460938 55.726562 202.460938 86.792969 C 202.460938 117.859375 227.644531 143.042969 258.710938 143.042969 C 289.777344 143.042969 314.960938 117.859375 314.960938 86.792969 C 314.960938 55.726562 289.777344 30.542969 258.710938 30.542969 Z M 258.710938 30.542969 " clip-rule="nonzero"/></clipPath><clipPath id="a70e2b115d"><path d="M 202.460938 232.121094 L 314.960938 232.121094 L 314.960938 344.621094 L 202.460938 344.621094 Z M 202.460938 232.121094 " clip-rule="nonzero"/></clipPath><clipPath id="7cbf2528e4"><path d="M 258.710938 232.121094 C 227.644531 232.121094 202.460938 257.304688 202.460938 288.371094 C 202.460938 319.4375 227.644531 344.621094 258.710938 344.621094 C 289.777344 344.621094 314.960938 319.4375 314.960938 288.371094 C 314.960938 257.304688 289.777344 232.121094 258.710938 232.121094 Z M 258.710938 232.121094 " clip-rule="nonzero"/></clipPath><clipPath id="9139ff6be3"><path d="M 52 24.25 L 323 24.25 L 323 350.5 L 52 350.5 Z M 52 24.25 " clip-rule="nonzero"/></clipPath></defs><g clip-path="url(#abddc1699f)"><g clip-path="url(#58aa0456fe)"><path fill="#ffffff" d="M 59.574219 131.25 L 172.074219 131.25 L 172.074219 243.75 L 59.574219 243.75 Z M 59.574219 131.25 " fill-opacity="1" fill-rule="nonzero"/></g></g><g clip-path="url(#7b7e619826)"><g clip-path="url(#43c0f589c5)"><path fill="#ffffff" d="M 202.460938 30.542969 L 314.960938 30.542969 L 314.960938 143.042969 L 202.460938 143.042969 Z M 202.460938 30.542969 " fill-opacity="1" fill-rule="nonzero"/></g></g><g clip-path="url(#a70e2b115d)"><g clip-path="url(#7cbf2528e4)"><path fill="#ffffff" d="M 202.460938 232.121094 L 314.960938 232.121094 L 314.960938 344.621094 L 202.460938 344.621094 Z M 202.460938 232.121094 " fill-opacity="1" fill-rule="nonzero"/></g></g><g clip-path="url(#9139ff6be3)"><path fill="#87cb28" d="M 259.035156 325.675781 C 242.761719 325.675781 229.574219 317.644531 229.574219 314.433594 C 229.574219 299.503906 242.761719 287.40625 259.035156 287.40625 C 275.308594 287.40625 288.496094 299.503906 288.496094 314.433594 C 288.496094 318.585938 275.308594 325.675781 259.035156 325.675781 Z M 259.03125 248.054688 C 269.050781 248.054688 277.160156 256.164062 277.160156 266.175781 C 277.160156 276.183594 269.050781 284.296875 259.03125 284.296875 C 249.027344 284.296875 240.910156 276.183594 240.910156 266.175781 C 240.910156 256.164062 249.027344 248.054688 259.03125 248.054688 Z M 115.953125 225.75 C 99.6875 225.75 86.496094 217.71875 86.496094 214.507812 C 86.496094 199.578125 99.6875 187.484375 115.953125 187.484375 C 132.226562 187.484375 145.417969 199.578125 145.417969 214.507812 C 145.417969 218.65625 132.226562 225.75 115.953125 225.75 Z M 115.953125 148.128906 C 125.96875 148.128906 134.074219 156.234375 134.074219 166.25 C 134.074219 176.257812 125.96875 184.371094 115.953125 184.371094 C 105.949219 184.371094 97.835938 176.257812 97.835938 166.25 C 97.835938 156.234375 105.949219 148.128906 115.953125 148.128906 Z M 259.035156 84.777344 C 275.308594 84.777344 288.496094 96.875 288.496094 111.808594 C 288.496094 115.960938 275.308594 123.050781 259.035156 123.050781 C 242.761719 123.050781 229.574219 115.011719 229.574219 111.808594 C 229.574219 96.875 242.761719 84.777344 259.035156 84.777344 Z M 259.03125 45.429688 C 269.050781 45.429688 277.160156 53.539062 277.160156 63.546875 C 277.160156 73.550781 269.050781 81.671875 259.03125 81.671875 C 249.027344 81.671875 240.910156 73.550781 240.910156 63.546875 C 240.910156 53.539062 249.027344 45.429688 259.03125 45.429688 Z M 259.035156 222.976562 C 237.675781 222.976562 218.785156 233.460938 207.183594 249.5625 L 169.609375 221.617188 C 176.074219 211.628906 179.847656 199.726562 179.847656 186.9375 C 179.847656 174.945312 176.535156 163.726562 170.785156 154.136719 L 208.941406 127.761719 C 220.644531 142.535156 238.726562 152.023438 259.035156 152.023438 C 294.320312 152.023438 322.925781 123.421875 322.925781 88.128906 C 322.925781 52.851562 294.320312 24.242188 259.035156 24.242188 C 223.75 24.242188 195.144531 52.851562 195.144531 88.128906 C 195.144531 100.105469 198.445312 111.296875 204.175781 120.878906 L 166.007812 147.253906 C 154.304688 132.515625 136.238281 123.050781 115.953125 123.050781 C 80.671875 123.050781 52.066406 151.65625 52.066406 186.9375 C 52.066406 222.222656 80.671875 250.824219 115.953125 250.824219 C 135.441406 250.824219 152.878906 242.089844 164.605469 228.335938 L 202.71875 256.679688 C 197.890625 265.667969 195.144531 275.941406 195.144531 286.859375 C 195.144531 322.148438 223.75 350.753906 259.035156 350.753906 C 294.320312 350.753906 322.925781 322.148438 322.925781 286.859375 C 322.925781 251.574219 294.320312 222.976562 259.035156 222.976562 " fill-opacity="1" fill-rule="nonzero"/></g></svg>