<svg xmlns="http://www.w3.org/2000/svg" xmlns:xlink="http://www.w3.org/1999/xlink" width="500" zoomAndPan="magnify" viewBox="0 0 375 374.999991" height="500" preserveAspectRatio="xMidYMid meet" version="1.0"><defs><clipPath id="09961e08ea"><path d="M 29.839844 29.839844 L 345.160156 29.839844 L 345.160156 345.160156 L 29.839844 345.160156 Z M 29.839844 29.839844 " clip-rule="nonzero"/></clipPath><clipPath id="d622bf88ba"><path d="M 187.5 29.839844 C 100.425781 29.839844 29.839844 100.425781 29.839844 187.5 C 29.839844 274.574219 100.425781 345.160156 187.5 345.160156 C 274.574219 345.160156 345.160156 274.574219 345.160156 187.5 C 345.160156 100.425781 274.574219 29.839844 187.5 29.839844 Z M 187.5 29.839844 " clip-rule="nonzero"/></clipPath><clipPath id="36ecfaca61"><path d="M 29.839844 29.839844 L 344.839844 29.839844 L 344.839844 344.839844 L 29.839844 344.839844 Z M 29.839844 29.839844 " clip-rule="nonzero"/></clipPath><clipPath id="953b24be70"><path d="M 187.496094 29.839844 C 100.425781 29.839844 29.839844 100.425781 29.839844 187.496094 C 29.839844 274.570312 100.425781 345.15625 187.496094 345.15625 C 274.570312 345.15625 345.15625 274.570312 345.15625 187.496094 C 345.15625 100.425781 274.570312 29.839844 187.496094 29.839844 Z M 187.496094 29.839844 " clip-rule="nonzero"/></clipPath><clipPath id="6d974413dd"><path d="M 92.089844 116.046875 L 282.589844 116.046875 L 282.589844 259.296875 L 92.089844 259.296875 Z M 92.089844 116.046875 " clip-rule="nonzero"/></clipPath></defs><g clip-path="url(#09961e08ea)"><g clip-path="url(#d622bf88ba)"><path fill="#ffffff" d="M 29.839844 29.839844 L 345.160156 29.839844 L 345.160156 345.160156 L 29.839844 345.160156 Z M 29.839844 29.839844 " fill-opacity="1" fill-rule="nonzero"/></g></g><g clip-path="url(#36ecfaca61)"><g clip-path="url(#953b24be70)"><path stroke-linecap="butt" transform="matrix(0.75, 0, 0, 0.75, 29.838992, 29.838988)" fill="none" stroke-linejoin="miter" d="M 210.209482 0.00114127 C 94.115725 0.00114127 0.00113527 94.115731 0.00113527 210.209488 C 0.00113527 326.308454 94.115725 420.423044 210.209482 420.423044 C 326.308448 420.423044 420.423038 326.308454 420.423038 210.209488 C 420.423038 94.115731 326.308448 0.00114127 210.209482 0.00114127 Z M 210.209482 0.00114127 " stroke="#e8e8e8" stroke-width="2" stroke-opacity="1" stroke-miterlimit="4"/></g></g><g clip-path="url(#6d974413dd)"><path fill="#000000" d="M 267.644531 259.273438 L 106.851562 259.273438 C 105.632812 259.113281 104.742188 258.976562 104.1875 258.859375 C 99.035156 257.769531 94.761719 253.71875 93.042969 248.882812 C 92.53125 247.4375 92.339844 245.921875 92.089844 244.386719 L 92.089844 130.695312 C 92.359375 129.964844 92.339844 129.144531 92.488281 128.523438 C 92.691406 127.671875 92.898438 126.722656 93.238281 125.933594 C 95.410156 120.835938 99.199219 117.683594 104.605469 116.480469 C 105.105469 116.367188 105.601562 116.300781 106.101562 116.28125 C 106.773438 116.25 107.429688 116.09375 108.109375 116.09375 C 160.492188 116.070312 213.4375 116.070312 266.9375 116.09375 C 267.347656 116.09375 267.753906 116.121094 268.15625 116.183594 C 268.554688 116.242188 268.957031 116.300781 269.363281 116.355469 C 270.765625 116.539062 272 116.875 273.078125 117.355469 C 278.195312 119.648438 281.976562 124.480469 282.351562 130.234375 C 282.414062 131.164062 282.507812 132.074219 282.5 133 C 282.285156 161.546875 282.40625 190.117188 282.40625 220.679688 C 282.40625 227.226562 282.578125 234.117188 282.488281 241.011719 C 282.460938 243.136719 282.410156 244.574219 282.339844 245.328125 C 281.917969 249.84375 279.792969 253.527344 275.972656 256.375 C 274.148438 257.726562 272.113281 258.589844 269.867188 258.957031 C 269.128906 259.074219 268.386719 259.179688 267.644531 259.273438 Z M 184.464844 202.164062 C 186.882812 203.082031 189.722656 202.484375 191.601562 200.730469 C 208.195312 185.214844 224.695312 169.859375 241.101562 154.660156 C 250.578125 145.878906 259.972656 137.144531 269.28125 128.457031 C 269.425781 128.324219 269.429688 128.183594 269.296875 128.039062 C 269.085938 127.816406 268.769531 127.703125 268.351562 127.703125 C 214.015625 127.683594 160.335938 127.675781 107.316406 127.675781 C 106.277344 127.675781 105.683594 127.917969 104.980469 128.59375 C 104.878906 128.691406 104.878906 128.785156 104.984375 128.882812 C 105.554688 129.378906 106.121094 129.890625 106.6875 130.410156 C 113.011719 136.214844 120.105469 142.796875 127.96875 150.160156 C 144.84375 165.972656 161.222656 181.253906 177.105469 196.015625 C 178.515625 197.324219 179.960938 198.667969 181.449219 200.042969 C 182.640625 201.144531 183.644531 201.851562 184.464844 202.164062 Z M 270.652344 143.617188 C 270.652344 143.578125 270.636719 143.542969 270.597656 143.515625 C 270.558594 143.484375 270.519531 143.480469 270.476562 143.511719 C 269.167969 144.523438 268.117188 145.714844 266.875 146.878906 C 253.398438 159.453125 239.570312 172.40625 225.394531 185.738281 C 225.257812 185.867188 225.117188 185.980469 224.964844 186.082031 C 224.75 186.226562 224.742188 186.386719 224.941406 186.554688 C 225.410156 186.957031 225.828125 187.328125 226.191406 187.671875 C 233.855469 194.882812 242.105469 202.6875 250.941406 211.089844 C 252.648438 212.710938 254.148438 214.160156 255.441406 215.4375 C 256.847656 216.824219 258.339844 218.132812 259.742188 219.515625 C 260.839844 220.597656 261.910156 221.617188 262.960938 222.570312 C 264.707031 224.160156 266.304688 225.835938 268.0625 227.429688 C 268.890625 228.179688 269.699219 228.964844 270.476562 229.78125 C 270.507812 229.8125 270.546875 229.828125 270.59375 229.816406 C 270.664062 229.804688 270.703125 229.773438 270.703125 229.71875 C 270.703125 201.066406 270.703125 172.421875 270.695312 143.792969 C 270.695312 143.753906 270.6875 143.71875 270.671875 143.6875 C 270.660156 143.667969 270.652344 143.644531 270.652344 143.617188 Z M 104.132812 229.820312 C 105.3125 228.636719 106.589844 227.390625 107.964844 226.074219 C 120.292969 214.300781 132.46875 202.625 144.492188 191.046875 C 145.859375 189.730469 147.300781 188.367188 148.808594 186.957031 C 149.105469 186.679688 149.101562 186.410156 148.804688 186.140625 C 148.222656 185.609375 147.671875 185.101562 147.148438 184.609375 C 132.625 170.949219 118.945312 158.15625 106.117188 146.222656 C 105.347656 145.511719 104.613281 144.820312 103.910156 144.160156 C 103.878906 144.128906 103.863281 144.128906 103.863281 144.160156 L 103.808594 229.683594 C 103.808594 229.992188 103.914062 230.039062 104.132812 229.820312 Z M 187.894531 214.546875 C 182.117188 214.808594 177.457031 212.707031 173.234375 208.714844 C 169.390625 205.078125 164.644531 200.617188 158.996094 195.324219 C 158.757812 195.101562 158.503906 194.886719 158.230469 194.675781 C 158.042969 194.539062 157.863281 194.546875 157.695312 194.703125 C 156.984375 195.351562 156.3125 196.078125 155.625 196.734375 C 140.898438 210.859375 126.3125 224.882812 111.867188 238.808594 C 110.042969 240.566406 108.414062 242.101562 106.988281 243.414062 C 106.183594 244.152344 105.421875 244.882812 104.710938 245.605469 C 104.515625 245.796875 104.515625 245.996094 104.699219 246.195312 C 105.84375 247.417969 106.847656 247.332031 108.691406 247.332031 C 161.496094 247.332031 214.300781 247.332031 267.105469 247.332031 C 268.40625 247.332031 269.128906 247.203125 269.820312 246.144531 C 269.980469 245.898438 269.957031 245.675781 269.746094 245.476562 C 252.730469 229.3125 235.71875 213.132812 218.714844 196.933594 C 217.769531 196.03125 216.964844 195.214844 216.308594 194.488281 C 216.222656 194.394531 216.113281 194.34375 215.984375 194.339844 C 215.855469 194.332031 215.746094 194.375 215.648438 194.460938 C 210.855469 198.914062 206.097656 203.425781 201.34375 207.914062 C 199.519531 209.632812 198.109375 210.820312 197.109375 211.46875 C 194.167969 213.375 191.097656 214.398438 187.894531 214.546875 Z M 187.894531 214.546875 " fill-opacity="1" fill-rule="nonzero"/></g></svg>