<svg xmlns="http://www.w3.org/2000/svg" xmlns:xlink="http://www.w3.org/1999/xlink" width="500" zoomAndPan="magnify" viewBox="0 0 375 374.999991" height="500" preserveAspectRatio="xMidYMid meet" version="1.0"><defs><clipPath id="7fbf2350bd"><path d="M 29.839844 29.839844 L 345.160156 29.839844 L 345.160156 345.160156 L 29.839844 345.160156 Z M 29.839844 29.839844 " clip-rule="nonzero"/></clipPath><clipPath id="a6f3ae9335"><path d="M 187.5 29.839844 C 100.425781 29.839844 29.839844 100.425781 29.839844 187.5 C 29.839844 274.574219 100.425781 345.160156 187.5 345.160156 C 274.574219 345.160156 345.160156 274.574219 345.160156 187.5 C 345.160156 100.425781 274.574219 29.839844 187.5 29.839844 Z M 187.5 29.839844 " clip-rule="nonzero"/></clipPath><clipPath id="32b473cd5d"><path d="M 29.839844 29.839844 L 344.839844 29.839844 L 344.839844 344.839844 L 29.839844 344.839844 Z M 29.839844 29.839844 " clip-rule="nonzero"/></clipPath><clipPath id="64ba40ebe5"><path d="M 187.496094 29.839844 C 100.425781 29.839844 29.839844 100.425781 29.839844 187.496094 C 29.839844 274.570312 100.425781 345.15625 187.496094 345.15625 C 274.570312 345.15625 345.15625 274.570312 345.15625 187.496094 C 345.15625 100.425781 274.570312 29.839844 187.496094 29.839844 Z M 187.496094 29.839844 " clip-rule="nonzero"/></clipPath><clipPath id="063bd84c37"><path d="M 101.074219 101.074219 L 273.574219 101.074219 L 273.574219 273.574219 L 101.074219 273.574219 Z M 101.074219 101.074219 " clip-rule="nonzero"/></clipPath></defs><g clip-path="url(#7fbf2350bd)"><g clip-path="url(#a6f3ae9335)"><path fill="#ffffff" d="M 29.839844 29.839844 L 345.160156 29.839844 L 345.160156 345.160156 L 29.839844 345.160156 Z M 29.839844 29.839844 " fill-opacity="1" fill-rule="nonzero"/></g></g><g clip-path="url(#32b473cd5d)"><g clip-path="url(#64ba40ebe5)"><path stroke-linecap="butt" transform="matrix(0.75, 0, 0, 0.75, 29.838992, 29.838988)" fill="none" stroke-linejoin="miter" d="M 210.209482 0.00114127 C 94.115725 0.00114127 0.00113527 94.115731 0.00113527 210.209488 C 0.00113527 326.308454 94.115725 420.423044 210.209482 420.423044 C 326.308448 420.423044 420.423038 326.308454 420.423038 210.209488 C 420.423038 94.115731 326.308448 0.00114127 210.209482 0.00114127 Z M 210.209482 0.00114127 " stroke="#e8e8e8" stroke-width="2" stroke-opacity="1" stroke-miterlimit="4"/></g></g><g clip-path="url(#063bd84c37)"><path fill="#000000" d="M 231.707031 273.574219 L 143.398438 273.574219 C 120.0625 273.574219 101.300781 254.8125 101.300781 231.476562 L 101.300781 143.167969 C 101.300781 119.832031 120.0625 101.074219 143.398438 101.074219 L 231.25 101.074219 C 254.585938 101.074219 273.34375 119.832031 273.34375 143.167969 L 273.34375 231.019531 C 273.34375 254.355469 254.585938 273.117188 231.25 273.117188 Z M 143.398438 114.800781 C 127.839844 114.800781 115.027344 127.613281 115.027344 143.167969 L 115.027344 231.019531 C 115.027344 246.578125 127.839844 259.390625 143.398438 259.390625 L 231.25 259.390625 C 246.804688 259.390625 259.617188 246.578125 259.617188 231.019531 L 259.617188 143.167969 C 259.617188 127.613281 246.804688 114.800781 231.25 114.800781 Z M 143.398438 114.800781 " fill-opacity="1" fill-rule="nonzero"/></g><path fill="#000000" d="M 187.78125 242.917969 C 157.582031 242.917969 133.332031 218.667969 133.332031 188.46875 C 133.332031 158.269531 157.582031 134.019531 187.78125 134.019531 C 217.980469 134.019531 242.230469 158.269531 242.230469 188.46875 C 242.230469 218.667969 217.980469 242.917969 187.78125 242.917969 Z M 187.78125 147.285156 C 164.902344 147.285156 146.601562 165.589844 146.601562 188.46875 C 146.601562 211.34375 164.902344 229.648438 187.78125 229.648438 C 210.660156 229.648438 228.960938 211.34375 228.960938 188.46875 C 228.960938 165.589844 210.660156 147.285156 187.78125 147.285156 Z M 187.78125 147.285156 " fill-opacity="1" fill-rule="nonzero"/><path fill="#000000" d="M 187.78125 213.175781 C 174.054688 213.175781 163.074219 202.195312 163.074219 188.46875 C 163.074219 174.742188 174.054688 163.757812 187.78125 163.757812 C 201.507812 163.757812 212.488281 174.742188 212.488281 188.46875 C 212.488281 202.195312 201.507812 213.175781 187.78125 213.175781 Z M 187.78125 177.484375 C 181.832031 177.484375 176.800781 182.519531 176.800781 188.46875 C 176.800781 194.414062 181.832031 199.449219 187.78125 199.449219 C 193.730469 199.449219 198.761719 194.414062 198.761719 188.46875 C 198.761719 182.519531 193.730469 177.484375 187.78125 177.484375 Z M 187.78125 177.484375 " fill-opacity="1" fill-rule="nonzero"/><path fill="#000000" d="M 246.804688 137.21875 C 246.804688 137.820312 246.746094 138.417969 246.628906 139.007812 C 246.511719 139.59375 246.339844 140.167969 246.109375 140.722656 C 245.878906 141.277344 245.597656 141.804688 245.265625 142.304688 C 244.929688 142.804688 244.550781 143.265625 244.125 143.691406 C 243.699219 144.117188 243.238281 144.496094 242.738281 144.828125 C 242.238281 145.164062 241.710938 145.445312 241.15625 145.675781 C 240.601562 145.90625 240.03125 146.078125 239.441406 146.195312 C 238.851562 146.3125 238.253906 146.371094 237.65625 146.371094 C 237.054688 146.371094 236.457031 146.3125 235.871094 146.195312 C 235.28125 146.078125 234.707031 145.90625 234.152344 145.675781 C 233.597656 145.445312 233.070312 145.164062 232.570312 144.828125 C 232.070312 144.496094 231.609375 144.117188 231.183594 143.691406 C 230.757812 143.265625 230.378906 142.804688 230.046875 142.304688 C 229.710938 141.804688 229.429688 141.277344 229.199219 140.722656 C 228.96875 140.167969 228.796875 139.59375 228.679688 139.007812 C 228.5625 138.417969 228.503906 137.820312 228.503906 137.21875 C 228.503906 136.621094 228.5625 136.023438 228.679688 135.433594 C 228.796875 134.847656 228.96875 134.273438 229.199219 133.71875 C 229.429688 133.164062 229.710938 132.636719 230.046875 132.136719 C 230.378906 131.636719 230.757812 131.175781 231.183594 130.75 C 231.609375 130.324219 232.070312 129.945312 232.570312 129.613281 C 233.070312 129.277344 233.597656 128.996094 234.152344 128.765625 C 234.707031 128.535156 235.28125 128.363281 235.871094 128.246094 C 236.457031 128.128906 237.054688 128.070312 237.65625 128.070312 C 238.253906 128.070312 238.851562 128.128906 239.441406 128.246094 C 240.03125 128.363281 240.601562 128.535156 241.15625 128.765625 C 241.710938 128.996094 242.238281 129.277344 242.738281 129.613281 C 243.238281 129.945312 243.699219 130.324219 244.125 130.75 C 244.550781 131.175781 244.929688 131.636719 245.265625 132.136719 C 245.597656 132.636719 245.878906 133.164062 246.109375 133.71875 C 246.339844 134.273438 246.511719 134.847656 246.628906 135.433594 C 246.746094 136.023438 246.804688 136.621094 246.804688 137.21875 Z M 246.804688 137.21875 " fill-opacity="1" fill-rule="nonzero"/></svg>