<svg xmlns="http://www.w3.org/2000/svg" xmlns:xlink="http://www.w3.org/1999/xlink" width="500" zoomAndPan="magnify" viewBox="0 0 375 374.999991" height="500" preserveAspectRatio="xMidYMid meet" version="1.0"><defs><clipPath id="a219171c0b"><path d="M 29.839844 29.839844 L 345.160156 29.839844 L 345.160156 345.160156 L 29.839844 345.160156 Z M 29.839844 29.839844 " clip-rule="nonzero"/></clipPath><clipPath id="4917d54e0a"><path d="M 187.5 29.839844 C 100.425781 29.839844 29.839844 100.425781 29.839844 187.5 C 29.839844 274.574219 100.425781 345.160156 187.5 345.160156 C 274.574219 345.160156 345.160156 274.574219 345.160156 187.5 C 345.160156 100.425781 274.574219 29.839844 187.5 29.839844 Z M 187.5 29.839844 " clip-rule="nonzero"/></clipPath><clipPath id="54ec840034"><path d="M 29.839844 29.839844 L 344.839844 29.839844 L 344.839844 344.839844 L 29.839844 344.839844 Z M 29.839844 29.839844 " clip-rule="nonzero"/></clipPath><clipPath id="53dc69e8f9"><path d="M 187.496094 29.839844 C 100.425781 29.839844 29.839844 100.425781 29.839844 187.496094 C 29.839844 274.570312 100.425781 345.15625 187.496094 345.15625 C 274.570312 345.15625 345.15625 274.570312 345.15625 187.496094 C 345.15625 100.425781 274.570312 29.839844 187.496094 29.839844 Z M 187.496094 29.839844 " clip-rule="nonzero"/></clipPath><clipPath id="e3ac2cc621"><path d="M 104 97.519531 L 272 97.519531 L 272 277 L 104 277 Z M 104 97.519531 " clip-rule="nonzero"/></clipPath></defs><g clip-path="url(#a219171c0b)"><g clip-path="url(#4917d54e0a)"><path fill="#ffffff" d="M 29.839844 29.839844 L 345.160156 29.839844 L 345.160156 345.160156 L 29.839844 345.160156 Z M 29.839844 29.839844 " fill-opacity="1" fill-rule="nonzero"/></g></g><g clip-path="url(#54ec840034)"><g clip-path="url(#53dc69e8f9)"><path stroke-linecap="butt" transform="matrix(0.75, 0, 0, 0.75, 29.838992, 29.838988)" fill="none" stroke-linejoin="miter" d="M 210.209482 0.00114127 C 94.115725 0.00114127 0.00113527 94.115731 0.00113527 210.209488 C 0.00113527 326.308454 94.115725 420.423044 210.209482 420.423044 C 326.308448 420.423044 420.423038 326.308454 420.423038 210.209488 C 420.423038 94.115731 326.308448 0.00114127 210.209482 0.00114127 Z M 210.209482 0.00114127 " stroke="#e8e8e8" stroke-width="2" stroke-opacity="1" stroke-miterlimit="4"/></g></g><g clip-path="url(#e3ac2cc621)"><path fill="#000000" d="M 226.261719 224.425781 C 229.359375 231.574219 228.511719 239.03125 228.558594 246.390625 C 228.605469 253.734375 228.605469 261.074219 228.554688 268.414062 C 228.511719 273.875 224.113281 277.515625 219.035156 276.402344 C 215.496094 275.625 213.011719 272.546875 213.003906 268.746094 C 212.980469 258.375 212.941406 248 213.050781 237.625 C 213.101562 232.453125 211.578125 227.96875 208.082031 224.167969 C 205.828125 221.722656 205.007812 218.933594 206.214844 215.792969 C 207.382812 212.746094 209.769531 211.332031 212.984375 210.734375 C 218.871094 209.640625 224.851562 208.699219 230.53125 206.878906 C 243.652344 202.675781 251.332031 193.316406 254.136719 179.980469 C 255.855469 171.804688 256.65625 163.542969 254.554688 155.285156 C 253.203125 149.957031 250.675781 145.207031 246.917969 141.199219 C 244.171875 138.269531 243.515625 135.164062 244.875 131.363281 C 246.902344 125.699219 247.109375 119.882812 245.617188 113.667969 C 243.570312 114.359375 241.542969 114.800781 239.75 115.710938 C 235.214844 118.003906 230.675781 120.339844 226.347656 122.992188 C 223.441406 124.773438 220.671875 125.304688 217.371094 124.453125 C 201.476562 120.34375 185.570312 120.351562 169.652344 124.472656 C 166.425781 125.308594 163.640625 124.898438 160.859375 123.015625 C 155.421875 119.335938 149.699219 116.15625 143.347656 114.273438 C 142.78125 114.101562 142.199219 113.992188 141.484375 113.824219 C 140.304688 118.164062 140.210938 122.414062 141.011719 126.679688 C 141.371094 128.574219 141.941406 130.4375 142.527344 132.28125 C 143.472656 135.25 143.078125 137.972656 140.960938 140.253906 C 134.03125 147.730469 130.953125 156.554688 131.359375 166.6875 C 131.636719 173.691406 132.488281 180.582031 135.105469 187.152344 C 139.34375 197.796875 147.425781 204.253906 158.121094 207.5 C 163.144531 209.027344 168.371094 209.953125 173.5625 210.839844 C 178.828125 211.742188 181.945312 214.976562 181.25 219.742188 C 181.027344 221.261719 180.238281 222.910156 179.21875 224.070312 C 175.523438 228.25 173.945312 233.011719 174.03125 238.570312 C 174.183594 248.578125 174.105469 258.589844 174.066406 268.601562 C 174.050781 273.195312 170.753906 276.585938 166.40625 276.644531 C 162.03125 276.703125 158.648438 273.234375 158.601562 268.558594 C 158.5625 264.199219 158.59375 259.839844 158.59375 255.710938 C 154.621094 255.710938 150.808594 255.914062 147.023438 255.667969 C 137.996094 255.082031 130.480469 251.152344 124.347656 244.625 C 121.570312 241.667969 119.078125 238.4375 116.488281 235.304688 C 114.347656 232.71875 112.125 230.425781 108.738281 229.257812 C 104.988281 227.960938 103.273438 223.507812 104.566406 219.746094 C 105.894531 215.878906 109.910156 213.753906 113.894531 214.777344 C 119.042969 216.09375 123.058594 219.144531 126.457031 223.0625 C 128.917969 225.90625 131.285156 228.835938 133.609375 231.792969 C 140.125 240.066406 148.625 241.785156 158.371094 239.457031 C 158.554688 236.867188 158.578125 234.316406 158.953125 231.820312 C 159.320312 229.378906 160.046875 226.992188 160.628906 224.527344 C 157.855469 223.679688 154.941406 222.898438 152.097656 221.910156 C 131.316406 214.6875 120.03125 199.71875 116.820312 178.335938 C 115.554688 169.910156 115.121094 161.445312 117.070312 153.019531 C 118.625 146.3125 121.398438 140.171875 125.5 134.644531 C 126.203125 133.695312 126.457031 132.851562 126.1875 131.664062 C 123.996094 122.042969 124.792969 112.640625 128.46875 103.484375 C 129.996094 99.683594 132.519531 98.15625 136.589844 97.964844 C 146.191406 97.515625 154.578125 101.199219 162.46875 105.921875 C 166.25 108.1875 169.59375 108.59375 173.8125 107.757812 C 188.226562 104.898438 202.675781 105.316406 217.03125 108.402344 C 218.683594 108.757812 219.960938 108.59375 221.421875 107.699219 C 228.542969 103.34375 235.960938 99.589844 244.316406 98.265625 C 246.867188 97.863281 249.539062 97.863281 252.117188 98.097656 C 255.195312 98.375 257.320312 100.234375 258.492188 103.121094 C 262.277344 112.4375 263.128906 121.996094 260.964844 131.832031 C 260.796875 132.59375 260.984375 133.671875 261.4375 134.292969 C 269.035156 144.6875 271.992188 156.355469 271.214844 169.09375 C 270.699219 177.554688 269.394531 185.84375 266.074219 193.707031 C 259.796875 208.582031 248.414062 217.675781 233.265625 222.453125 C 231.023438 223.160156 228.738281 223.730469 226.261719 224.425781 Z M 226.261719 224.425781 " fill-opacity="1" fill-rule="nonzero"/></g></svg>