<svg xmlns="http://www.w3.org/2000/svg" xmlns:xlink="http://www.w3.org/1999/xlink" width="500" zoomAndPan="magnify" viewBox="0 0 375 374.999991" height="500" preserveAspectRatio="xMidYMid meet" version="1.0"><defs><clipPath id="e8ee8bb21d"><path d="M 29.839844 29.839844 L 345.160156 29.839844 L 345.160156 345.160156 L 29.839844 345.160156 Z M 29.839844 29.839844 " clip-rule="nonzero"/></clipPath><clipPath id="f9fd7d70f5"><path d="M 187.5 29.839844 C 100.425781 29.839844 29.839844 100.425781 29.839844 187.5 C 29.839844 274.574219 100.425781 345.160156 187.5 345.160156 C 274.574219 345.160156 345.160156 274.574219 345.160156 187.5 C 345.160156 100.425781 274.574219 29.839844 187.5 29.839844 Z M 187.5 29.839844 " clip-rule="nonzero"/></clipPath><clipPath id="2178f713f2"><path d="M 29.839844 29.839844 L 344.839844 29.839844 L 344.839844 344.839844 L 29.839844 344.839844 Z M 29.839844 29.839844 " clip-rule="nonzero"/></clipPath><clipPath id="ac5f6a5dbf"><path d="M 187.496094 29.839844 C 100.425781 29.839844 29.839844 100.425781 29.839844 187.496094 C 29.839844 274.570312 100.425781 345.15625 187.496094 345.15625 C 274.570312 345.15625 345.15625 274.570312 345.15625 187.496094 C 345.15625 100.425781 274.570312 29.839844 187.496094 29.839844 Z M 187.496094 29.839844 " clip-rule="nonzero"/></clipPath><clipPath id="bb391e6643"><path d="M 143.675781 95 L 231.425781 95 L 231.425781 280 L 143.675781 280 Z M 143.675781 95 " clip-rule="nonzero"/></clipPath></defs><g clip-path="url(#e8ee8bb21d)"><g clip-path="url(#f9fd7d70f5)"><path fill="#ffffff" d="M 29.839844 29.839844 L 345.160156 29.839844 L 345.160156 345.160156 L 29.839844 345.160156 Z M 29.839844 29.839844 " fill-opacity="1" fill-rule="nonzero"/></g></g><g clip-path="url(#2178f713f2)"><g clip-path="url(#ac5f6a5dbf)"><path stroke-linecap="butt" transform="matrix(0.75, 0, 0, 0.75, 29.838992, 29.838988)" fill="none" stroke-linejoin="miter" d="M 210.209482 0.00114127 C 94.115725 0.00114127 0.00113527 94.115731 0.00113527 210.209488 C 0.00113527 326.308454 94.115725 420.423044 210.209482 420.423044 C 326.308448 420.423044 420.423038 326.308454 420.423038 210.209488 C 420.423038 94.115731 326.308448 0.00114127 210.209482 0.00114127 Z M 210.209482 0.00114127 " stroke="#e8e8e8" stroke-width="2" stroke-opacity="1" stroke-miterlimit="4"/></g></g><g clip-path="url(#bb391e6643)"><path fill="#000000" d="M 211.101562 125.519531 L 231.320312 125.519531 L 231.320312 95.035156 L 205.5 95.035156 L 205.5 95.148438 C 171.554688 96.394531 164.558594 115.410156 163.972656 135.511719 L 163.894531 135.511719 L 163.894531 156.664062 L 143.675781 156.664062 L 143.675781 187.1875 L 163.894531 187.1875 L 163.894531 279.964844 L 200.175781 279.964844 L 200.175781 187.1875 L 226.1875 187.1875 L 231.320312 156.664062 L 200.175781 156.664062 L 200.175781 137.726562 C 200.175781 131 204.683594 125.519531 211.101562 125.519531 Z M 211.101562 125.519531 " fill-opacity="1" fill-rule="nonzero"/></g></svg>