<svg xmlns="http://www.w3.org/2000/svg" xmlns:xlink="http://www.w3.org/1999/xlink" width="500" zoomAndPan="magnify" viewBox="0 0 375 374.999991" height="500" preserveAspectRatio="xMidYMid meet" version="1.0"><defs><clipPath id="ad703fbe9c"><path d="M 29.839844 29.839844 L 345.160156 29.839844 L 345.160156 345.160156 L 29.839844 345.160156 Z M 29.839844 29.839844 " clip-rule="nonzero"/></clipPath><clipPath id="d61aad5229"><path d="M 187.5 29.839844 C 100.425781 29.839844 29.839844 100.425781 29.839844 187.5 C 29.839844 274.574219 100.425781 345.160156 187.5 345.160156 C 274.574219 345.160156 345.160156 274.574219 345.160156 187.5 C 345.160156 100.425781 274.574219 29.839844 187.5 29.839844 Z M 187.5 29.839844 " clip-rule="nonzero"/></clipPath><clipPath id="690c77eea5"><path d="M 29.839844 29.839844 L 344.839844 29.839844 L 344.839844 344.839844 L 29.839844 344.839844 Z M 29.839844 29.839844 " clip-rule="nonzero"/></clipPath><clipPath id="f400b1eadd"><path d="M 187.496094 29.839844 C 100.425781 29.839844 29.839844 100.425781 29.839844 187.496094 C 29.839844 274.570312 100.425781 345.15625 187.496094 345.15625 C 274.570312 345.15625 345.15625 274.570312 345.15625 187.496094 C 345.15625 100.425781 274.570312 29.839844 187.496094 29.839844 Z M 187.496094 29.839844 " clip-rule="nonzero"/></clipPath><clipPath id="90f47f5a5a"><path d="M 85.621094 85.621094 L 289.621094 85.621094 L 289.621094 289.621094 L 85.621094 289.621094 Z M 85.621094 85.621094 " clip-rule="nonzero"/></clipPath></defs><g clip-path="url(#ad703fbe9c)"><g clip-path="url(#d61aad5229)"><path fill="#ffffff" d="M 29.839844 29.839844 L 345.160156 29.839844 L 345.160156 345.160156 L 29.839844 345.160156 Z M 29.839844 29.839844 " fill-opacity="1" fill-rule="nonzero"/></g></g><g clip-path="url(#690c77eea5)"><g clip-path="url(#f400b1eadd)"><path stroke-linecap="butt" transform="matrix(0.75, 0, 0, 0.75, 29.838992, 29.838988)" fill="none" stroke-linejoin="miter" d="M 210.209482 0.00114127 C 94.115725 0.00114127 0.00113527 94.115731 0.00113527 210.209488 C 0.00113527 326.308454 94.115725 420.423044 210.209482 420.423044 C 326.308448 420.423044 420.423038 326.308454 420.423038 210.209488 C 420.423038 94.115731 326.308448 0.00114127 210.209482 0.00114127 Z M 210.209482 0.00114127 " stroke="#e8e8e8" stroke-width="2" stroke-opacity="1" stroke-miterlimit="4"/></g></g><g clip-path="url(#90f47f5a5a)"><path fill="#000000" d="M 148.574219 85.621094 L 226.664062 85.621094 C 228.726562 85.621094 230.78125 85.722656 232.835938 85.925781 C 234.886719 86.125 236.921875 86.429688 238.945312 86.832031 C 240.96875 87.234375 242.964844 87.734375 244.9375 88.332031 C 246.910156 88.929688 248.851562 89.625 250.753906 90.414062 C 252.660156 91.203125 254.523438 92.082031 256.339844 93.054688 C 258.160156 94.027344 259.925781 95.085938 261.640625 96.230469 C 263.351562 97.375 265.007812 98.601562 266.601562 99.910156 C 268.195312 101.21875 269.71875 102.601562 271.179688 104.058594 C 272.636719 105.519531 274.019531 107.042969 275.328125 108.636719 C 276.636719 110.230469 277.863281 111.886719 279.007812 113.597656 C 280.152344 115.3125 281.210938 117.078125 282.183594 118.898438 C 283.15625 120.714844 284.035156 122.578125 284.824219 124.484375 C 285.613281 126.386719 286.308594 128.328125 286.90625 130.300781 C 287.503906 132.273438 288.003906 134.269531 288.40625 136.292969 C 288.808594 138.316406 289.113281 140.351562 289.3125 142.402344 C 289.515625 144.457031 289.617188 146.511719 289.617188 148.574219 L 289.617188 226.664062 C 289.617188 228.726562 289.515625 230.785156 289.3125 232.835938 C 289.113281 234.886719 288.808594 236.925781 288.40625 238.945312 C 288.003906 240.96875 287.503906 242.964844 286.90625 244.941406 C 286.308594 246.914062 285.613281 248.851562 284.824219 250.757812 C 284.035156 252.660156 283.15625 254.523438 282.183594 256.339844 C 281.210938 258.160156 280.152344 259.925781 279.007812 261.640625 C 277.863281 263.355469 276.636719 265.007812 275.328125 266.601562 C 274.019531 268.195312 272.636719 269.722656 271.179688 271.179688 C 269.71875 272.636719 268.195312 274.019531 266.601562 275.328125 C 265.007812 276.636719 263.351562 277.863281 261.640625 279.007812 C 259.925781 280.152344 258.160156 281.210938 256.339844 282.183594 C 254.523438 283.15625 252.660156 284.035156 250.753906 284.824219 C 248.851562 285.613281 246.910156 286.308594 244.9375 286.90625 C 242.964844 287.503906 240.96875 288.007812 238.945312 288.410156 C 236.921875 288.8125 234.886719 289.113281 232.835938 289.316406 C 230.78125 289.515625 228.726562 289.617188 226.664062 289.617188 L 148.574219 289.617188 C 146.511719 289.617188 144.453125 289.515625 142.402344 289.316406 C 140.351562 289.113281 138.3125 288.8125 136.292969 288.410156 C 134.269531 288.007812 132.273438 287.503906 130.296875 286.90625 C 128.324219 286.308594 126.386719 285.613281 124.480469 284.824219 C 122.578125 284.035156 120.714844 283.15625 118.898438 282.183594 C 117.078125 281.210938 115.3125 280.152344 113.597656 279.007812 C 111.882812 277.863281 110.230469 276.636719 108.636719 275.328125 C 107.042969 274.019531 105.515625 272.636719 104.058594 271.179688 C 102.601562 269.722656 101.21875 268.195312 99.910156 266.601562 C 98.601562 265.007812 97.375 263.355469 96.230469 261.640625 C 95.085938 259.925781 94.027344 258.160156 93.054688 256.339844 C 92.082031 254.523438 91.203125 252.660156 90.414062 250.757812 C 89.625 248.851562 88.929688 246.914062 88.332031 244.941406 C 87.734375 242.964844 87.230469 240.96875 86.828125 238.945312 C 86.425781 236.925781 86.125 234.886719 85.921875 232.835938 C 85.722656 230.785156 85.621094 228.726562 85.621094 226.664062 L 85.621094 148.574219 C 85.621094 146.511719 85.722656 144.457031 85.921875 142.402344 C 86.125 140.351562 86.425781 138.316406 86.828125 136.292969 C 87.230469 134.269531 87.734375 132.273438 88.332031 130.300781 C 88.929688 128.328125 89.625 126.386719 90.414062 124.484375 C 91.203125 122.578125 92.082031 120.714844 93.054688 118.898438 C 94.027344 117.078125 95.085938 115.3125 96.230469 113.597656 C 97.375 111.886719 98.601562 110.230469 99.910156 108.636719 C 101.21875 107.042969 102.601562 105.519531 104.058594 104.058594 C 105.515625 102.601562 107.042969 101.21875 108.636719 99.910156 C 110.230469 98.601562 111.882812 97.375 113.597656 96.230469 C 115.3125 95.085938 117.078125 94.027344 118.898438 93.054688 C 120.714844 92.082031 122.578125 91.203125 124.480469 90.414062 C 126.386719 89.625 128.324219 88.929688 130.296875 88.332031 C 132.273438 87.734375 134.269531 87.234375 136.292969 86.832031 C 138.3125 86.429688 140.351562 86.125 142.402344 85.925781 C 144.453125 85.722656 146.511719 85.621094 148.574219 85.621094 Z M 148.574219 85.621094 " fill-opacity="1" fill-rule="evenodd"/></g><path fill="#fefefe" d="M 184.28125 195.699219 L 179.144531 188.347656 L 138.257812 129.871094 L 155.863281 129.871094 L 188.855469 177.066406 L 193.992188 184.414062 L 236.878906 245.761719 L 219.277344 245.761719 L 184.28125 195.703125 Z M 199.976562 177.453125 L 248.332031 121.246094 L 236.867188 121.246094 L 194.882812 170.050781 L 161.351562 121.246094 L 122.671875 121.246094 L 173.378906 195.046875 L 122.671875 253.988281 L 134.132812 253.988281 L 178.46875 202.453125 L 213.886719 253.988281 L 252.5625 253.988281 L 199.96875 177.453125 Z M 199.976562 177.453125 " fill-opacity="1" fill-rule="nonzero"/></svg>